<svg id="Layer_1" data-name="Layer 1" xmlns="http://www.w3.org/2000/svg" viewBox="0 0 2412.23 1116.14"><defs><style>.cls-1,.cls-13,.cls-9{fill:#3f5251;}.cls-1,.cls-10,.cls-11,.cls-12,.cls-13,.cls-14,.cls-15,.cls-16,.cls-17,.cls-2,.cls-3,.cls-4,.cls-5,.cls-6,.cls-7,.cls-8,.cls-9{stroke:#fff;stroke-miterlimit:10;}.cls-1,.cls-3,.cls-4,.cls-5,.cls-6,.cls-7,.cls-8{stroke-width:5px;}.cls-2{fill:#606a75;}.cls-12,.cls-3{fill:#6b667b;}.cls-11,.cls-15,.cls-4{fill:#b3a790;}.cls-16,.cls-5{fill:#779376;}.cls-17,.cls-6{fill:#866b66;}.cls-10,.cls-14,.cls-7{fill:#626977;}.cls-8{fill:none;}.cls-13,.cls-14,.cls-15,.cls-16,.cls-17{stroke-width:3px;}</style></defs><title>jamiedesignedfinal</title><path class="cls-1" d="M1849.06,924.74l-33,426.93a2.12,2.12,0,0,0,2.18,2.28l58.71-2a2.13,2.13,0,0,0,2-2.12l1.17-434.29a2.12,2.12,0,0,0-2.82-2l-26.82,9.38A2.13,2.13,0,0,0,1849.06,924.74Z" transform="translate(-222.29 -424.42)"/><path class="cls-2" d="M1888,563.54h-2.6a2.11,2.11,0,0,1-2.12-2.17l3.5-135.48h0l3.33,135.48A2.11,2.11,0,0,1,1888,563.54Z" transform="translate(-222.29 -424.42)"/><path class="cls-3" d="M1902.38,853.64h-30.75a2.12,2.12,0,0,1-2.12-2.19L1875,671a2.13,2.13,0,0,1,2.12-2.06h19.29a2.13,2.13,0,0,1,2.12,2.05l6,180.48A2.12,2.12,0,0,1,1902.38,853.64Z" transform="translate(-222.29 -424.42)"/><path class="cls-4" d="M1932.53,917.39c0,3.7-3.81,5.71-6.43,3.46-7.76-6.65-21.81-15.78-40.71-15.7-17.41.07-30.53,7.93-38,13.82-2.63,2.08-6.25,0-6.28-3.58q-.16-21.51-.34-43a4.28,4.28,0,0,1,3.67-4.48,1.86,1.86,0,0,0,.58-.11,120.4,120.4,0,0,1,83.58,0,2.3,2.3,0,0,0,.58.12,3.88,3.88,0,0,1,2.54,1.31,4.7,4.7,0,0,1,1.15,3.17Z" transform="translate(-222.29 -424.42)"/><path class="cls-5" d="M1911.26,661.77c0,1.46-2,2.26-3.38,1.37a39.65,39.65,0,0,0-41.4-.74c-1.39.82-3.29,0-3.31-1.42l-.18-17a1.91,1.91,0,0,1,1.89-1.77,1.84,1.84,0,0,0,.4-.06,83.09,83.09,0,0,1,44.07,0l.34,0a2.16,2.16,0,0,1,1.75,2.11Z" transform="translate(-222.29 -424.42)"/><path class="cls-6" d="M1893.29,631.91h-12.85a2.12,2.12,0,0,1-2.11-2.26l2.49-39.76a2.12,2.12,0,0,1,2.11-2h7.61a2.11,2.11,0,0,1,2.11,2l2.76,39.76A2.13,2.13,0,0,1,1893.29,631.91Z" transform="translate(-222.29 -424.42)"/><path class="cls-7" d="M1922.78,925,1955.84,1352a2.12,2.12,0,0,1-2.19,2.28l-58.7-2a2.11,2.11,0,0,1-2-2.11l-1.18-434.29a2.13,2.13,0,0,1,2.82-2l26.83,9.38A2.11,2.11,0,0,1,1922.78,925Z" transform="translate(-222.29 -424.42)"/><path class="cls-8" d="M1897.71,582.21a.87.87,0,0,1-1.41.75,13.24,13.24,0,0,0-17.26-.41.87.87,0,0,1-1.38-.78c0-3.11-.05-6.22-.08-9.34a.93.93,0,0,1,.88-1,26.61,26.61,0,0,1,18.45,0,.85.85,0,0,1,.62.29,1,1,0,0,1,.25.68Z" transform="translate(-222.29 -424.42)"/><path class="cls-9" d="M2075.26,465.71l-39.34-.13q0,16.5-5.68,26.66-8.07,14.89-29.46,23.44l-1.57-1-1.28-.81c-1.69-1.07-3.64-2.31-5.83-3.72q18.09-7.07,26-17.11,7.47-9.8,7.47-25.05v-2.36l-48.16.13v-8.07h97.82ZM2057,438.17h-62.52v-7.68H2057Zm25.28,6.83-4.94,3.59c-.5-.58-.92-1-1.27-1.36s-.67-.66-1-1c-1-1-2-1.91-2.92-2.73a28.15,28.15,0,0,0-2.91-2.23l4.63-3.73,1.35.93c.4.3.8.56,1.2.81a35.56,35.56,0,0,1,3.06,2.61A28.28,28.28,0,0,1,2082.29,445Zm3-13-4.94,3.85c-.5-.58-.92-1.06-1.27-1.43l-1-1.05c-.9-.83-1.85-1.63-2.84-2.42s-2.05-1.59-3.14-2.42l4.79-3.47,1.49,1.05a6.15,6.15,0,0,0,1.2.69c1.09.82,2.11,1.67,3.06,2.54A36.34,36.34,0,0,1,2085.28,432Z" transform="translate(-222.29 -424.42)"/><path class="cls-10" d="M2075.56,584.51l-21.69-.13v3c0,1,.05,2.13.15,3.29q0,13.89-5.08,23.44-7.64,15.26-28.87,27.16a7.68,7.68,0,0,0-.82-.81l-.68-.56c-1.09-1-2.14-1.88-3.14-2.66a16.53,16.53,0,0,0-2.69-1.8q19.14-10.05,26.18-23,5.07-9.42,5.08-22.07l-.15-6.08H2012v27h-10v-27l-26,.13v-8.19l26,.13-.15-22.2,3.89-.12a32.15,32.15,0,0,1,4.86.31c1.35.2,2,.55,2,1l-.6,2.85v18.11h31.86V555.61c-.1-.82-.17-1.5-.22-2s-.08-.89-.08-1.06h3.59a29.74,29.74,0,0,1,5.46.38c1.25.24,1.87.78,1.87,1.61a4,4,0,0,1-.15,1c-.1.37-.25.89-.45,1.55v19.35l21.69-.13Zm3-17-4.94,3.72a17.17,17.17,0,0,1-1.19-1.3c-.3-.38-.6-.73-.9-1.06a53.87,53.87,0,0,0-6-5l4.63-3.59a13.78,13.78,0,0,1,2.55,1.48A32.16,32.16,0,0,1,2078.55,567.52Zm3-12.15-4.93,3.72a17.93,17.93,0,0,0-1.35-1.43q-.6-.55-1.05-1c-.89-.91-1.82-1.78-2.76-2.61a22.09,22.09,0,0,0-3.07-2.23l4.79-3.47a6.2,6.2,0,0,1,1,.49,7.79,7.79,0,0,1,.67.5A35.25,35.25,0,0,1,2081.54,555.37Z" transform="translate(-222.29 -424.42)"/><path class="cls-11" d="M2064.34,681.86q1.35,1,1.35,1.74c0,.33-.38.66-1.12,1s-1.48.62-2.17.87q-2.55,2.85-12.87,10.29-5.24,3.72-8.6,6t-5.16,3.29v56.18h-10.91V712.37q-2.25,1.36-6.36,3.34l-10,4.84q-14.05,6.57-20.34,8.56a12.28,12.28,0,0,1-2.09-2.23c-.9-.91-1.75-1.72-2.54-2.42s-1.6-1.35-2.4-1.92a251.63,251.63,0,0,0,40.39-18.85q22.73-13.52,36.49-26.67a14.07,14.07,0,0,0,1.42,1.06,10,10,0,0,1,1,.68c1,.74,1.82,1.36,2.47,1.86A10.59,10.59,0,0,1,2064.34,681.86Z" transform="translate(-222.29 -424.42)"/><path class="cls-12" d="M2008,814.8l-4.79,7.07c-1.3-.49-2.45-1-3.44-1.36l-2.69-1.12q-3.6-1.49-6.66-3t-5.76-3.16l4.79-6.45c1.1.66,2.07,1.22,2.92,1.68a14.19,14.19,0,0,0,2.46,1.05q3.45,1.74,6.73,3C2003.72,813.38,2005.86,814.14,2008,814.8Zm66.1,9.55q-4.18,5.08-6.95,8.37c-1.85,2.19-3.32,3.83-4.41,4.9a126.52,126.52,0,0,1-11.15,10.29q-5.91,4.85-12.34,9.3a185.09,185.09,0,0,1-18.92,11q-9.94,5-21.16,9.36c-.8.5-1.55,1-2.24,1.49a17.92,17.92,0,0,1-2.25,1.36,3.46,3.46,0,0,1-2.46-1.42,34.07,34.07,0,0,1-3.37-5,29.74,29.74,0,0,0-2.24-3.6,173,173,0,0,0,18.47-6.14,140.08,140.08,0,0,0,17.27-8.25,149.11,149.11,0,0,0,13.54-8.61,136.47,136.47,0,0,0,12.64-10.24,145,145,0,0,0,18.09-19.71Z" transform="translate(-222.29 -424.42)"/><path class="cls-13" d="M223.79,1512.38a10,10,0,0,1,10-10h45q33,0,53.84-28.14,19.54-28.15,19.57-74.63V832.13a10,10,0,0,1,10-10h28.89a10,10,0,0,1,10,10v567.45q0,63.6-33,101.55-34.28,37.9-89.32,37.93h-45a10,10,0,0,1-10-10ZM362.25,617.79h28.94a10,10,0,0,1,10,10v54.63a10,10,0,0,1-10,10H362.25a10,10,0,0,1-10-10V627.79A10,10,0,0,1,362.25,617.79Z" transform="translate(-222.29 -424.42)"/><path class="cls-14" d="M519.87,1318.83q-55.06-44-55.06-105.21,0-58.74,53.83-102.78,52.59-44,132.13-51.38,77.09-7.34,126-24.47Q827,1017.88,827,994.62v-46.5q0-40.36-44-68.51-42.84-28.12-105.22-28.14-58.73,0-101.55,26.92-41.6,28.15-41.59,66.07v21.07a5.84,5.84,0,0,1-5.84,5.84H493.89a5.83,5.83,0,0,1-5.83-5.84v-26q0-52.59,55.05-89.31,56.26-36.71,134.58-36.71,80.74,0,138.25,35.49t57.5,85.64v315.65q0,30.6,13.46,52.61t33,22a45.36,45.36,0,0,0,11-1.22h0a5.91,5.91,0,0,1,7.34,5.74v10a5.79,5.79,0,0,1-3.6,5.39q-17.45,7-42.89,7-28.17,0-48.94-24.47a87,87,0,0,1-17.63-38.09,5.83,5.83,0,0,0-10.74-1.85q-17.18,28.89-53.6,48.5-47.71,25.69-110.12,25.69Q573.7,1361.65,519.87,1318.83Zm245.91-36.7q50-41.42,61.09-105.93a5.88,5.88,0,0,0,.08-1V1067a5.84,5.84,0,0,0-8.75-5.08q-18.19,10.68-53.64,18.34-42.84,9.81-113.79,15.9-57.51,4.9-96.65,39.15-39.17,33-39.15,78.31,0,46.5,40.37,78.3,39.15,33,95.43,33Q715.62,1325,765.78,1282.13Z" transform="translate(-222.29 -424.42)"/><path class="cls-15" d="M1032.49,1333.3V832.11a10,10,0,0,1,10-10h28.94a10,10,0,0,1,10,10v41.43c0,9.66,12.41,13.78,18.07,6a172.33,172.33,0,0,1,44.32-42.7q40.38-28.12,86.87-28.14,55.05,0,96.66,29.36,33.09,23.65,47.92,56.82a10,10,0,0,0,17.6,1.13,176.81,176.81,0,0,1,59.27-58,194.74,194.74,0,0,1,104-29.36q69.73,0,119.9,47.71,48.92,47.71,48.94,115V1333.3a10,10,0,0,1-10,10H1686a10,10,0,0,1-10-10V971.37q0-51.39-35.48-88.09-34.27-36.71-84.42-36.7-57.53,0-102.77,40.37-44.94,40.08-56.11,101.86a10.21,10.21,0,0,0-.17,1.83V1333.3a10,10,0,0,1-10,10h-28.94a10,10,0,0,1-10-10V971.37q0-51.39-33-88.09t-79.53-36.7q-55,0-99.09,42.82Q1094,933.13,1081.6,998.57a10.91,10.91,0,0,0-.17,1.9V1333.3a10,10,0,0,1-10,10h-28.94A10,10,0,0,1,1032.49,1333.3Z" transform="translate(-222.29 -424.42)"/><path class="cls-16" d="M2589.84,1256.5h37.42a5.76,5.76,0,0,1,5.76,5.76v63.12a5.76,5.76,0,0,1-5.76,5.76h-37.42a5.76,5.76,0,0,1-5.76-5.76v-63.12A5.76,5.76,0,0,1,2589.84,1256.5Z" transform="translate(-222.29 -424.42)"/><path class="cls-17" d="M2111.57,1285.8q-63.63-77.08-63.62-203.09t63.62-203.1q63.6-75.84,168.84-75.85t168.84,69.73q63.59,69.74,63.62,186V1077a5.76,5.76,0,0,1-5.76,5.76H2102.69a5.76,5.76,0,0,0-5.76,5.85q1.34,102.35,50.12,164.21,50.16,63.63,133.36,63.62,62.4,0,112.56-33,49.65-33.09,69.61-85.64a5.72,5.72,0,0,1,5.36-3.67h38a5.74,5.74,0,0,1,5.65,6.89q-14.11,67.6-77,113-66.08,47.71-154.16,47.71Q2175.17,1361.65,2111.57,1285.8Zm352.36-255.34v-12.33a4.89,4.89,0,0,0,0-.54q-6.21-72-58.7-122.07-53.85-48.93-124.79-48.94t-123.57,50.16q-53.76,51.3-59.93,125.76c0,.17,0,.34,0,.52v7.44a5.76,5.76,0,0,0,5.76,5.76h355.52A5.76,5.76,0,0,0,2463.93,1030.46Z" transform="translate(-222.29 -424.42)"/></svg>