<svg id="Layer_1" data-name="Layer 1" xmlns="http://www.w3.org/2000/svg" viewBox="0 0 2412.23 1115.53"><defs><style>.cls-1{fill:none;stroke:#fff;stroke-width:5px;}.cls-1,.cls-3{stroke-miterlimit:10;}.cls-2,.cls-3{fill:#fff;}.cls-3{stroke:#000;stroke-width:3px;}</style></defs><title>jamiedesignedfinal</title><path class="cls-1" d="M1849.06,924.74l-33,426.93a2.12,2.12,0,0,0,2.18,2.28l58.71-2a2.13,2.13,0,0,0,2-2.12l1.17-434.29a2.12,2.12,0,0,0-2.82-2l-26.82,9.38A2.13,2.13,0,0,0,1849.06,924.74Z" transform="translate(-222.29 -425.03)"/><path class="cls-1" d="M1888,563.54h-2.6a2.11,2.11,0,0,1-2.12-2.17l3.5-135.48h0l3.33,135.48A2.11,2.11,0,0,1,1888,563.54Z" transform="translate(-222.29 -425.03)"/><path class="cls-1" d="M1902.38,853.64h-30.75a2.12,2.12,0,0,1-2.12-2.19L1875,671a2.13,2.13,0,0,1,2.12-2.06h19.29a2.13,2.13,0,0,1,2.12,2.05l6,180.48A2.12,2.12,0,0,1,1902.38,853.64Z" transform="translate(-222.29 -425.03)"/><path class="cls-1" d="M1932.53,917.39c0,3.7-3.81,5.71-6.43,3.46-7.76-6.65-21.81-15.78-40.71-15.7-17.41.07-30.53,7.93-38,13.82-2.63,2.08-6.25,0-6.28-3.58q-.16-21.51-.34-43a4.28,4.28,0,0,1,3.67-4.48,1.86,1.86,0,0,0,.58-.11,120.4,120.4,0,0,1,83.58,0,2.3,2.3,0,0,0,.58.12,3.88,3.88,0,0,1,2.54,1.31,4.7,4.7,0,0,1,1.15,3.17Z" transform="translate(-222.29 -425.03)"/><path class="cls-1" d="M1911.26,661.77c0,1.46-2,2.26-3.38,1.37a39.65,39.65,0,0,0-41.4-.74c-1.39.82-3.29,0-3.31-1.42l-.18-17a1.91,1.91,0,0,1,1.89-1.77,1.84,1.84,0,0,0,.4-.06,83.09,83.09,0,0,1,44.07,0l.34,0a2.16,2.16,0,0,1,1.75,2.11Z" transform="translate(-222.29 -425.03)"/><path class="cls-1" d="M1893.29,631.91h-12.85a2.12,2.12,0,0,1-2.11-2.26l2.49-39.76a2.12,2.12,0,0,1,2.11-2h7.61a2.11,2.11,0,0,1,2.11,2l2.76,39.76A2.13,2.13,0,0,1,1893.29,631.91Z" transform="translate(-222.29 -425.03)"/><path class="cls-1" d="M1922.78,925,1955.84,1352a2.12,2.12,0,0,1-2.19,2.28l-58.7-2a2.11,2.11,0,0,1-2-2.11l-1.18-434.29a2.13,2.13,0,0,1,2.82-2l26.83,9.38A2.11,2.11,0,0,1,1922.78,925Z" transform="translate(-222.29 -425.03)"/><path class="cls-1" d="M1897.71,582.21a.87.87,0,0,1-1.41.75,13.24,13.24,0,0,0-17.26-.41.87.87,0,0,1-1.38-.78c0-3.11-.05-6.22-.08-9.34a.93.93,0,0,1,.88-1,26.61,26.61,0,0,1,18.45,0,.85.85,0,0,1,.62.29,1,1,0,0,1,.25.68Z" transform="translate(-222.29 -425.03)"/><path class="cls-2" d="M2046.7,454l-28-.09q0,11.76-4,19-5.76,10.59-21,16.7l-1.12-.76-.91-.57c-1.21-.76-2.59-1.65-4.15-2.65q12.88-5,18.54-12.19,5.32-7,5.33-17.85v-1.68L1977,454v-5.74h69.69Zm-13-19.62h-44.54v-5.47h44.54Zm18,4.86-3.52,2.57a12.12,12.12,0,0,0-.9-1c-.25-.23-.48-.47-.69-.7-.71-.71-1.41-1.36-2.08-1.95a23.41,23.41,0,0,0-2.08-1.59l3.3-2.65c.36.24.68.46,1,.67s.57.39.86.57a24.78,24.78,0,0,1,2.18,1.86A20.42,20.42,0,0,1,2051.71,439.25Zm2.13-9.27-3.51,2.74c-.36-.42-.66-.75-.91-1s-.48-.51-.69-.75c-.64-.59-1.32-1.16-2-1.72s-1.45-1.14-2.24-1.73l3.42-2.47c.42.29.78.54,1.06.75a4.12,4.12,0,0,0,.85.49c.78.59,1.51,1.19,2.19,1.81A25.5,25.5,0,0,1,2053.84,430Z" transform="translate(-222.29 -425.03)"/><path class="cls-2" d="M2046.92,538.65l-15.46-.09v2.17c0,.73,0,1.51.11,2.34q0,9.88-3.62,16.7-5.43,10.86-20.57,19.35a6.31,6.31,0,0,0-.58-.58l-.48-.4c-.78-.7-1.53-1.34-2.24-1.9a12.73,12.73,0,0,0-1.92-1.28q13.63-7.15,18.65-16.34a32.71,32.71,0,0,0,3.62-15.73l-.1-4.33h-22.7v19.26h-7.14V538.56l-18.54.09v-5.83l18.54.09-.11-15.82,2.77-.09a24.38,24.38,0,0,1,3.47.22c1,.15,1.44.4,1.44.76l-.43,2v12.9h22.7V518.06c-.08-.58-.13-1.07-.16-1.45s-.06-.64-.06-.75h2.56a21.22,21.22,0,0,1,3.89.26c.89.18,1.33.56,1.33,1.15a3,3,0,0,1-.11.75c-.07.26-.17.63-.32,1.1v13.79l15.46-.09Zm2.13-12.1-3.52,2.65a12.11,12.11,0,0,1-.85-.93c-.22-.27-.43-.52-.64-.75a37.36,37.36,0,0,0-4.26-3.54l3.3-2.56a9.9,9.9,0,0,1,1.81,1.06A22.58,22.58,0,0,1,2049.05,526.55Zm2.13-8.66-3.52,2.65a12.45,12.45,0,0,0-1-1,10.33,10.33,0,0,1-.74-.75c-.64-.65-1.3-1.27-2-1.85a16.62,16.62,0,0,0-2.19-1.6l3.41-2.47a4.84,4.84,0,0,1,.69.35,5,5,0,0,1,.48.36A25.07,25.07,0,0,1,2051.18,517.89Z" transform="translate(-222.29 -425.03)"/><path class="cls-2" d="M2038.92,608q1,.71,1,1.23c0,.24-.26.48-.8.71s-1,.44-1.54.62q-1.82,2-9.17,7.33-3.72,2.65-6.12,4.29t-3.68,2.34v40h-7.78V629.74q-1.59,1-4.53,2.39l-7.08,3.44a135.64,135.64,0,0,1-14.49,6.1,9.06,9.06,0,0,1-1.5-1.59c-.63-.65-1.24-1.22-1.81-1.72s-1.13-1-1.7-1.37a179.29,179.29,0,0,0,28.77-13.43q16.2-9.63,26-19a8.44,8.44,0,0,0,1,.75,7.51,7.51,0,0,1,.69.49l1.76,1.32A7.86,7.86,0,0,1,2038.92,608Z" transform="translate(-222.29 -425.03)"/><path class="cls-2" d="M1998.75,702.72l-3.41,5c-.92-.35-1.74-.68-2.45-1L1991,706q-2.55-1.07-4.74-2.16c-1.46-.74-2.82-1.49-4.1-2.26l3.41-4.59c.78.47,1.47.87,2.08,1.19a9.21,9.21,0,0,0,1.75.75q2.46,1.25,4.8,2.17T1998.75,702.72Zm47.1,6.81q-3,3.62-4.95,6t-3.15,3.49a89.05,89.05,0,0,1-7.94,7.33q-4.2,3.45-8.79,6.63a131.43,131.43,0,0,1-13.48,7.82q-7.08,3.57-15.07,6.67c-.57.35-1.11.71-1.6,1.06a13.34,13.34,0,0,1-1.6,1,2.49,2.49,0,0,1-1.76-1,24.81,24.81,0,0,1-2.4-3.58,20.55,20.55,0,0,0-1.6-2.57,120.78,120.78,0,0,0,13.16-4.37,102.75,102.75,0,0,0,12.31-5.87,110.09,110.09,0,0,0,9.64-6.14,97.09,97.09,0,0,0,9-7.29,103.82,103.82,0,0,0,12.89-14Z" transform="translate(-222.29 -425.03)"/><path class="cls-2" d="M2045.74,819.52l-4.37,4.86q-3.09-2.64-12.46-7.77-5.22-2.93-9.17-4.73a48.79,48.79,0,0,0-6.71-2.61l.21,33.49h-7.46l.22-38.17q0-4-.06-7.11c0-2.09-.07-4-.1-5.7s-.07-3.25-.11-4.64,0-2.72,0-4l3.41-.09a19.63,19.63,0,0,1,3.3.22q1.17.22,1.17,1.11a2.62,2.62,0,0,1-.1.88,3.14,3.14,0,0,0-.27.71,1.5,1.5,0,0,1-.16.44V808l3.09-4.07q4.47,1.06,14,5.92Q2040.42,815.11,2045.74,819.52Zm-2.55-27.3-3.52,2.74a5.17,5.17,0,0,0-.43-.62,3.57,3.57,0,0,0-.42-.44c-.78-.82-1.57-1.59-2.35-2.3a28,28,0,0,0-2.55-2l3.3-2.47,1.06.62a12.61,12.61,0,0,1,2.56,1.94C2041.62,790.43,2042.4,791.28,2043.19,792.22Zm6.92-6-3.51,2.57q-.54-.45-1-.84t-.75-.75a26.92,26.92,0,0,0-4.15-3.45l3.41-2.65a6.23,6.23,0,0,1,.63.44l.43.36A20.58,20.58,0,0,1,2050.11,786.21Z" transform="translate(-222.29 -425.03)"/><path class="cls-3" d="M223.79,1512.38a10,10,0,0,1,10-10h45q33,0,53.84-28.14,19.54-28.15,19.57-74.63V832.13a10,10,0,0,1,10-10h28.89a10,10,0,0,1,10,10v567.45q0,63.6-33,101.55-34.28,37.9-89.32,37.93h-45a10,10,0,0,1-10-10ZM362.25,617.79h28.94a10,10,0,0,1,10,10v54.63a10,10,0,0,1-10,10H362.25a10,10,0,0,1-10-10V627.79A10,10,0,0,1,362.25,617.79Z" transform="translate(-222.29 -425.03)"/><path class="cls-3" d="M519.87,1318.83q-55.06-44-55.06-105.21,0-58.74,53.83-102.78,52.59-44,132.13-51.38,77.09-7.34,126-24.47Q827,1017.88,827,994.62v-46.5q0-40.36-44-68.51-42.84-28.12-105.22-28.14-58.73,0-101.55,26.92-41.6,28.15-41.59,66.07v21.07a5.84,5.84,0,0,1-5.84,5.84H493.89a5.83,5.83,0,0,1-5.83-5.84v-26q0-52.59,55.05-89.31,56.26-36.71,134.58-36.71,80.74,0,138.25,35.49t57.5,85.64v315.65q0,30.6,13.46,52.61t33,22a45.36,45.36,0,0,0,11-1.22h0a5.91,5.91,0,0,1,7.34,5.74v10a5.79,5.79,0,0,1-3.6,5.39q-17.45,7-42.89,7-28.17,0-48.94-24.47a87,87,0,0,1-17.63-38.09,5.83,5.83,0,0,0-10.74-1.85q-17.18,28.89-53.6,48.5-47.71,25.69-110.12,25.69Q573.7,1361.65,519.87,1318.83Zm245.91-36.7q50-41.42,61.09-105.93a5.88,5.88,0,0,0,.08-1V1067a5.84,5.84,0,0,0-8.75-5.08q-18.19,10.68-53.64,18.34-42.84,9.81-113.79,15.9-57.51,4.9-96.65,39.15-39.17,33-39.15,78.31,0,46.5,40.37,78.3,39.15,33,95.43,33Q715.62,1325,765.78,1282.13Z" transform="translate(-222.29 -425.03)"/><path class="cls-3" d="M1032.49,1333.3V832.11a10,10,0,0,1,10-10h28.94a10,10,0,0,1,10,10v41.43c0,9.66,12.41,13.78,18.07,6a172.33,172.33,0,0,1,44.32-42.7q40.38-28.12,86.87-28.14,55.05,0,96.66,29.36,33.09,23.65,47.92,56.82a10,10,0,0,0,17.6,1.13,176.81,176.81,0,0,1,59.27-58,194.74,194.74,0,0,1,104-29.36q69.73,0,119.9,47.71,48.92,47.71,48.94,115V1333.3a10,10,0,0,1-10,10H1686a10,10,0,0,1-10-10V971.37q0-51.39-35.48-88.09-34.27-36.71-84.42-36.7-57.53,0-102.77,40.37-44.94,40.08-56.11,101.86a10.21,10.21,0,0,0-.17,1.83V1333.3a10,10,0,0,1-10,10h-28.94a10,10,0,0,1-10-10V971.37q0-51.39-33-88.09t-79.53-36.7q-55,0-99.09,42.82Q1094,933.13,1081.6,998.57a10.91,10.91,0,0,0-.17,1.9V1333.3a10,10,0,0,1-10,10h-28.94A10,10,0,0,1,1032.49,1333.3Z" transform="translate(-222.29 -425.03)"/><path class="cls-3" d="M2589.84,1256.5h37.42a5.76,5.76,0,0,1,5.76,5.76v63.12a5.76,5.76,0,0,1-5.76,5.76h-37.42a5.76,5.76,0,0,1-5.76-5.76v-63.12A5.76,5.76,0,0,1,2589.84,1256.5Z" transform="translate(-222.29 -425.03)"/><path class="cls-3" d="M2111.57,1285.8q-63.63-77.08-63.62-203.09t63.62-203.1q63.6-75.84,168.84-75.85t168.84,69.73q63.59,69.74,63.62,186V1077a5.76,5.76,0,0,1-5.76,5.76H2102.69a5.76,5.76,0,0,0-5.76,5.85q1.34,102.35,50.12,164.21,50.16,63.63,133.36,63.62,62.4,0,112.56-33,49.65-33.09,69.61-85.64a5.72,5.72,0,0,1,5.36-3.67h38a5.74,5.74,0,0,1,5.65,6.89q-14.11,67.6-77,113-66.08,47.71-154.16,47.71Q2175.17,1361.65,2111.57,1285.8Zm352.36-255.34v-12.33a4.89,4.89,0,0,0,0-.54q-6.21-72-58.7-122.07-53.85-48.93-124.79-48.94t-123.57,50.16q-53.76,51.3-59.93,125.76c0,.17,0,.34,0,.52v7.44a5.76,5.76,0,0,0,5.76,5.76h355.52A5.76,5.76,0,0,0,2463.93,1030.46Z" transform="translate(-222.29 -425.03)"/></svg>